<mxfile host="app.diagrams.net" agent="Mozilla/5.0 (Windows NT 10.0; Win64; x64) AppleWebKit/537.36 (KHTML, like Gecko) Chrome/132.0.0.0 Safari/537.36" version="24.8.4" pages="5">
  <diagram id="C5RBs43oDa-KdzZeNtuy" name="Page-1">
    <mxGraphModel dx="1207" dy="711" grid="1" gridSize="10" guides="1" tooltips="1" connect="1" arrows="1" fold="1" page="1" pageScale="1" pageWidth="827" pageHeight="1169" math="0" shadow="0">
      <root>
        <mxCell id="WIyWlLk6GJQsqaUBKTNV-0" />
        <mxCell id="WIyWlLk6GJQsqaUBKTNV-1" parent="WIyWlLk6GJQsqaUBKTNV-0" />
        <mxCell id="WIyWlLk6GJQsqaUBKTNV-2" value="" style="rounded=0;html=1;jettySize=auto;orthogonalLoop=1;fontSize=11;endArrow=block;endFill=0;endSize=8;strokeWidth=1;shadow=0;labelBackgroundColor=none;edgeStyle=orthogonalEdgeStyle;" parent="WIyWlLk6GJQsqaUBKTNV-1" source="WIyWlLk6GJQsqaUBKTNV-3" target="WIyWlLk6GJQsqaUBKTNV-6" edge="1">
          <mxGeometry relative="1" as="geometry" />
        </mxCell>
        <mxCell id="WIyWlLk6GJQsqaUBKTNV-3" value="登录" style="rounded=1;whiteSpace=wrap;html=1;fontSize=12;glass=0;strokeWidth=1;shadow=0;" parent="WIyWlLk6GJQsqaUBKTNV-1" vertex="1">
          <mxGeometry x="160" y="80" width="120" height="40" as="geometry" />
        </mxCell>
        <mxCell id="WIyWlLk6GJQsqaUBKTNV-4" value="Yes" style="rounded=0;html=1;jettySize=auto;orthogonalLoop=1;fontSize=11;endArrow=block;endFill=0;endSize=8;strokeWidth=1;shadow=0;labelBackgroundColor=none;edgeStyle=orthogonalEdgeStyle;" parent="WIyWlLk6GJQsqaUBKTNV-1" source="WIyWlLk6GJQsqaUBKTNV-6" target="WIyWlLk6GJQsqaUBKTNV-10" edge="1">
          <mxGeometry y="20" relative="1" as="geometry">
            <mxPoint as="offset" />
          </mxGeometry>
        </mxCell>
        <mxCell id="WIyWlLk6GJQsqaUBKTNV-5" value="No" style="edgeStyle=orthogonalEdgeStyle;rounded=0;html=1;jettySize=auto;orthogonalLoop=1;fontSize=11;endArrow=block;endFill=0;endSize=8;strokeWidth=1;shadow=0;labelBackgroundColor=none;" parent="WIyWlLk6GJQsqaUBKTNV-1" source="WIyWlLk6GJQsqaUBKTNV-6" target="WIyWlLk6GJQsqaUBKTNV-7" edge="1">
          <mxGeometry y="10" relative="1" as="geometry">
            <mxPoint as="offset" />
          </mxGeometry>
        </mxCell>
        <mxCell id="WIyWlLk6GJQsqaUBKTNV-6" value="&lt;div&gt;&lt;div class=&quot;document&quot;&gt;&lt;p class=&quot;paragraph text-align-type-left pap-line-1.3 pap-line-rule-auto pap-spacing-before-3pt pap-spacing-after-3pt pap-hanging-indent-1.6em&quot; style=&quot;text-align: left ; line-height: 130% ; margin-top: 4px ; margin-bottom: 4px&quot;&gt;&lt;span style=&quot;font-size: 11pt ; font-family: , &amp;#34;helvetica neue&amp;#34; , &amp;#34;helvetica&amp;#34; , &amp;#34;pingfang sc&amp;#34; , &amp;#34;microsoft yahei&amp;#34; , &amp;#34;source han sans sc&amp;#34; , &amp;#34;noto sans cjk sc&amp;#34; , &amp;#34;wenquanyi micro hei&amp;#34; , sans-serif ; color: rgb(51 , 51 , 51) ; background: transparent ; letter-spacing: 0pt ; vertical-align: baseline&quot;&gt;子工程是否合法&lt;/span&gt;&lt;/p&gt;&lt;/div&gt;&lt;/div&gt;" style="rhombus;whiteSpace=wrap;html=1;shadow=0;fontFamily=Helvetica;fontSize=12;align=center;strokeWidth=1;spacing=6;spacingTop=-4;" parent="WIyWlLk6GJQsqaUBKTNV-1" vertex="1">
          <mxGeometry x="125" y="180" width="190" height="90" as="geometry" />
        </mxCell>
        <mxCell id="WIyWlLk6GJQsqaUBKTNV-7" value="&lt;div class=&quot;document&quot;&gt;&lt;pre style=&quot;text-align: left ; line-height: 130% ; margin-top: 4px ; margin-bottom: 4px&quot;&gt;&lt;span style=&quot;font-size: 11pt ; font-family: , &amp;#34;helvetica neue&amp;#34; , &amp;#34;helvetica&amp;#34; , &amp;#34;pingfang sc&amp;#34; , &amp;#34;microsoft yahei&amp;#34; , &amp;#34;source han sans sc&amp;#34; , &amp;#34;noto sans cjk sc&amp;#34; , &amp;#34;wenquanyi micro hei&amp;#34; , sans-serif ; color: rgb(51 , 51 , 51) ; background: transparent ; letter-spacing: 0pt ; vertical-align: baseline&quot;&gt;提示：检查子工程是否合法&lt;/span&gt;&lt;/pre&gt;&lt;/div&gt;" style="rounded=1;whiteSpace=wrap;html=1;fontSize=12;glass=0;strokeWidth=1;shadow=0;" parent="WIyWlLk6GJQsqaUBKTNV-1" vertex="1">
          <mxGeometry x="400" y="205" width="190" height="40" as="geometry" />
        </mxCell>
        <mxCell id="WIyWlLk6GJQsqaUBKTNV-8" value="Yes" style="rounded=0;html=1;jettySize=auto;orthogonalLoop=1;fontSize=11;endArrow=block;endFill=0;endSize=8;strokeWidth=1;shadow=0;labelBackgroundColor=none;edgeStyle=orthogonalEdgeStyle;exitX=0.5;exitY=1;exitDx=0;exitDy=0;" parent="WIyWlLk6GJQsqaUBKTNV-1" source="XSYDADeBCPBfHiSxV8Ye-8" target="WIyWlLk6GJQsqaUBKTNV-11" edge="1">
          <mxGeometry x="0.0385" y="20" relative="1" as="geometry">
            <mxPoint as="offset" />
          </mxGeometry>
        </mxCell>
        <mxCell id="WIyWlLk6GJQsqaUBKTNV-9" value="No" style="edgeStyle=orthogonalEdgeStyle;rounded=0;html=1;jettySize=auto;orthogonalLoop=1;fontSize=11;endArrow=block;endFill=0;endSize=8;strokeWidth=1;shadow=0;labelBackgroundColor=none;" parent="WIyWlLk6GJQsqaUBKTNV-1" source="WIyWlLk6GJQsqaUBKTNV-10" target="WIyWlLk6GJQsqaUBKTNV-12" edge="1">
          <mxGeometry y="10" relative="1" as="geometry">
            <mxPoint as="offset" />
          </mxGeometry>
        </mxCell>
        <mxCell id="XSYDADeBCPBfHiSxV8Ye-10" style="edgeStyle=orthogonalEdgeStyle;rounded=0;orthogonalLoop=1;jettySize=auto;html=1;exitX=0.5;exitY=1;exitDx=0;exitDy=0;entryX=0.5;entryY=0;entryDx=0;entryDy=0;" parent="WIyWlLk6GJQsqaUBKTNV-1" source="WIyWlLk6GJQsqaUBKTNV-10" target="XSYDADeBCPBfHiSxV8Ye-5" edge="1">
          <mxGeometry relative="1" as="geometry" />
        </mxCell>
        <mxCell id="WIyWlLk6GJQsqaUBKTNV-10" value="&lt;div&gt;&lt;div class=&quot;document&quot;&gt;&lt;p class=&quot;paragraph text-align-type-left pap-line-1.3 pap-line-rule-auto pap-spacing-before-3pt pap-spacing-after-3pt pap-hanging-indent-1.6em&quot; style=&quot;text-align: left ; line-height: 130% ; margin-top: 4px ; margin-bottom: 4px&quot;&gt;&lt;span style=&quot;font-size: 11pt ; font-family: , &amp;#34;helvetica neue&amp;#34; , &amp;#34;helvetica&amp;#34; , &amp;#34;pingfang sc&amp;#34; , &amp;#34;microsoft yahei&amp;#34; , &amp;#34;source han sans sc&amp;#34; , &amp;#34;noto sans cjk sc&amp;#34; , &amp;#34;wenquanyi micro hei&amp;#34; , sans-serif ; color: rgb(51 , 51 , 51) ; background: transparent ; letter-spacing: 0pt ; vertical-align: baseline&quot;&gt;校验用户是否在用户组中&lt;/span&gt;&lt;/p&gt;&lt;/div&gt;&lt;/div&gt;" style="rhombus;whiteSpace=wrap;html=1;shadow=0;fontFamily=Helvetica;fontSize=12;align=center;strokeWidth=1;spacing=6;spacingTop=-4;" parent="WIyWlLk6GJQsqaUBKTNV-1" vertex="1">
          <mxGeometry x="110" y="370" width="220" height="80" as="geometry" />
        </mxCell>
        <mxCell id="WIyWlLk6GJQsqaUBKTNV-11" value="显示界面" style="rounded=1;whiteSpace=wrap;html=1;fontSize=12;glass=0;strokeWidth=1;shadow=0;" parent="WIyWlLk6GJQsqaUBKTNV-1" vertex="1">
          <mxGeometry x="160" y="800" width="120" height="40" as="geometry" />
        </mxCell>
        <mxCell id="WIyWlLk6GJQsqaUBKTNV-12" value="&lt;div&gt;&lt;div class=&quot;document&quot;&gt;&lt;p class=&quot;paragraph text-align-type-left pap-line-1.3 pap-line-rule-auto pap-spacing-before-3pt pap-spacing-after-3pt pap-hanging-indent-1.6em&quot; style=&quot;text-align: left ; line-height: 130% ; margin-top: 4px ; margin-bottom: 4px&quot;&gt;&lt;span style=&quot;font-size: 11pt ; font-family: , &amp;#34;helvetica neue&amp;#34; , &amp;#34;helvetica&amp;#34; , &amp;#34;pingfang sc&amp;#34; , &amp;#34;microsoft yahei&amp;#34; , &amp;#34;source han sans sc&amp;#34; , &amp;#34;noto sans cjk sc&amp;#34; , &amp;#34;wenquanyi micro hei&amp;#34; , sans-serif ; color: rgb(51 , 51 , 51) ; background: transparent ; letter-spacing: 0pt ; vertical-align: baseline&quot;&gt;跳转权限申请界面&lt;/span&gt;&lt;/p&gt;&lt;/div&gt;&lt;/div&gt;" style="rounded=1;whiteSpace=wrap;html=1;fontSize=12;glass=0;strokeWidth=1;shadow=0;" parent="WIyWlLk6GJQsqaUBKTNV-1" vertex="1">
          <mxGeometry x="400" y="390" width="150" height="40" as="geometry" />
        </mxCell>
        <mxCell id="XSYDADeBCPBfHiSxV8Ye-4" value="No" style="edgeStyle=orthogonalEdgeStyle;rounded=0;html=1;jettySize=auto;orthogonalLoop=1;fontSize=11;endArrow=block;endFill=0;endSize=8;strokeWidth=1;shadow=0;labelBackgroundColor=none;" parent="WIyWlLk6GJQsqaUBKTNV-1" source="XSYDADeBCPBfHiSxV8Ye-5" target="XSYDADeBCPBfHiSxV8Ye-6" edge="1">
          <mxGeometry y="10" relative="1" as="geometry">
            <mxPoint as="offset" />
          </mxGeometry>
        </mxCell>
        <mxCell id="XSYDADeBCPBfHiSxV8Ye-11" style="edgeStyle=orthogonalEdgeStyle;rounded=0;orthogonalLoop=1;jettySize=auto;html=1;exitX=0.5;exitY=1;exitDx=0;exitDy=0;entryX=0.5;entryY=0;entryDx=0;entryDy=0;" parent="WIyWlLk6GJQsqaUBKTNV-1" source="XSYDADeBCPBfHiSxV8Ye-5" target="XSYDADeBCPBfHiSxV8Ye-8" edge="1">
          <mxGeometry relative="1" as="geometry" />
        </mxCell>
        <mxCell id="XSYDADeBCPBfHiSxV8Ye-5" value="&lt;div&gt;&lt;div class=&quot;document&quot;&gt;&lt;p class=&quot;paragraph text-align-type-left pap-line-1.3 pap-line-rule-auto pap-spacing-before-3pt pap-spacing-after-3pt pap-hanging-indent-1.6em&quot; style=&quot;text-align: left ; line-height: 130% ; margin-top: 4px ; margin-bottom: 4px&quot;&gt;&lt;span style=&quot;font-size: 11pt ; font-family: , &amp;#34;helvetica neue&amp;#34; , &amp;#34;helvetica&amp;#34; , &amp;#34;pingfang sc&amp;#34; , &amp;#34;microsoft yahei&amp;#34; , &amp;#34;source han sans sc&amp;#34; , &amp;#34;noto sans cjk sc&amp;#34; , &amp;#34;wenquanyi micro hei&amp;#34; , sans-serif ; color: rgb(51 , 51 , 51) ; background: transparent ; letter-spacing: 0pt ; vertical-align: baseline&quot;&gt;校验路由是否在用户组中&lt;/span&gt;&lt;/p&gt;&lt;/div&gt;&lt;/div&gt;" style="rhombus;whiteSpace=wrap;html=1;shadow=0;fontFamily=Helvetica;fontSize=12;align=center;strokeWidth=1;spacing=6;spacingTop=-4;" parent="WIyWlLk6GJQsqaUBKTNV-1" vertex="1">
          <mxGeometry x="110" y="500" width="220" height="90" as="geometry" />
        </mxCell>
        <mxCell id="XSYDADeBCPBfHiSxV8Ye-6" value="&lt;div class=&quot;document&quot;&gt;&lt;p class=&quot;paragraph text-align-type-left pap-line-1.3 pap-line-rule-auto pap-spacing-before-3pt pap-spacing-after-3pt pap-hanging-indent-1.6em&quot; style=&quot;text-align: left ; line-height: 130% ; margin-top: 4px ; margin-bottom: 4px&quot;&gt;&lt;/p&gt;&lt;div&gt;&lt;div class=&quot;document&quot;&gt;&lt;p class=&quot;paragraph text-align-type-left pap-line-1.3 pap-line-rule-auto pap-spacing-before-3pt pap-spacing-after-3pt pap-hanging-indent-1.6em&quot; style=&quot;text-align: left ; line-height: 130% ; margin-top: 4px ; margin-bottom: 4px&quot;&gt;&lt;span style=&quot;font-size: 11pt ; font-family: , &amp;#34;helvetica neue&amp;#34; , &amp;#34;helvetica&amp;#34; , &amp;#34;pingfang sc&amp;#34; , &amp;#34;microsoft yahei&amp;#34; , &amp;#34;source han sans sc&amp;#34; , &amp;#34;noto sans cjk sc&amp;#34; , &amp;#34;wenquanyi micro hei&amp;#34; , sans-serif ; color: rgb(51 , 51 , 51) ; background: transparent ; letter-spacing: 0pt ; vertical-align: baseline&quot;&gt;提示：没有当前权限&lt;/span&gt;&lt;/p&gt;&lt;/div&gt;&lt;/div&gt;&lt;/div&gt;" style="rounded=1;whiteSpace=wrap;html=1;fontSize=12;glass=0;strokeWidth=1;shadow=0;" parent="WIyWlLk6GJQsqaUBKTNV-1" vertex="1">
          <mxGeometry x="400" y="525" width="150" height="40" as="geometry" />
        </mxCell>
        <mxCell id="XSYDADeBCPBfHiSxV8Ye-7" value="No" style="edgeStyle=orthogonalEdgeStyle;rounded=0;html=1;jettySize=auto;orthogonalLoop=1;fontSize=11;endArrow=block;endFill=0;endSize=8;strokeWidth=1;shadow=0;labelBackgroundColor=none;" parent="WIyWlLk6GJQsqaUBKTNV-1" source="XSYDADeBCPBfHiSxV8Ye-8" target="XSYDADeBCPBfHiSxV8Ye-9" edge="1">
          <mxGeometry y="10" relative="1" as="geometry">
            <mxPoint as="offset" />
          </mxGeometry>
        </mxCell>
        <mxCell id="XSYDADeBCPBfHiSxV8Ye-8" value="&lt;div class=&quot;document&quot;&gt;&lt;p class=&quot;paragraph text-align-type-left pap-line-1.3 pap-line-rule-auto pap-spacing-before-3pt pap-spacing-after-3pt pap-hanging-indent-1.6em&quot; style=&quot;text-align: left ; line-height: 130% ; margin-top: 4px ; margin-bottom: 4px&quot;&gt;&lt;/p&gt;&lt;div&gt;&lt;div class=&quot;document&quot;&gt;&lt;p class=&quot;paragraph text-align-type-left pap-line-1.3 pap-line-rule-auto pap-spacing-before-3pt pap-spacing-after-3pt pap-hanging-indent-1.6em&quot; style=&quot;text-align: left ; line-height: 130% ; margin-top: 4px ; margin-bottom: 4px&quot;&gt;&lt;span style=&quot;font-size: 11pt ; font-family: , &amp;#34;helvetica neue&amp;#34; , &amp;#34;helvetica&amp;#34; , &amp;#34;pingfang sc&amp;#34; , &amp;#34;microsoft yahei&amp;#34; , &amp;#34;source han sans sc&amp;#34; , &amp;#34;noto sans cjk sc&amp;#34; , &amp;#34;wenquanyi micro hei&amp;#34; , sans-serif ; color: rgb(51 , 51 , 51) ; background: transparent ; letter-spacing: 0pt ; vertical-align: baseline&quot;&gt;校验开关的值&lt;/span&gt;&lt;/p&gt;&lt;/div&gt;&lt;/div&gt;&lt;/div&gt;" style="rhombus;whiteSpace=wrap;html=1;shadow=0;fontFamily=Helvetica;fontSize=12;align=center;strokeWidth=1;spacing=6;spacingTop=-4;" parent="WIyWlLk6GJQsqaUBKTNV-1" vertex="1">
          <mxGeometry x="110" y="646" width="220" height="84" as="geometry" />
        </mxCell>
        <mxCell id="XSYDADeBCPBfHiSxV8Ye-9" value="&lt;font color=&quot;#333333&quot;&gt;&lt;span style=&quot;font-size: 14.6667px&quot;&gt;控制对应的按钮、路由&lt;/span&gt;&lt;/font&gt;" style="rounded=1;whiteSpace=wrap;html=1;fontSize=12;glass=0;strokeWidth=1;shadow=0;" parent="WIyWlLk6GJQsqaUBKTNV-1" vertex="1">
          <mxGeometry x="400" y="666" width="160" height="40" as="geometry" />
        </mxCell>
        <mxCell id="XSYDADeBCPBfHiSxV8Ye-12" value="&lt;meta charset=&quot;utf-8&quot;&gt;&lt;span style=&quot;color: rgb(0, 0, 0); font-family: helvetica; font-size: 11px; font-style: normal; font-weight: 400; letter-spacing: normal; text-align: center; text-indent: 0px; text-transform: none; word-spacing: 0px; background-color: rgb(248, 249, 250); display: inline; float: none;&quot;&gt;Yes&lt;/span&gt;" style="text;whiteSpace=wrap;html=1;" parent="WIyWlLk6GJQsqaUBKTNV-1" vertex="1">
          <mxGeometry x="230" y="600" width="50" height="30" as="geometry" />
        </mxCell>
        <mxCell id="XSYDADeBCPBfHiSxV8Ye-13" value="&lt;meta charset=&quot;utf-8&quot;&gt;&lt;span style=&quot;color: rgb(0, 0, 0); font-family: helvetica; font-size: 11px; font-style: normal; font-weight: 400; letter-spacing: normal; text-align: center; text-indent: 0px; text-transform: none; word-spacing: 0px; background-color: rgb(248, 249, 250); display: inline; float: none;&quot;&gt;Yes&lt;/span&gt;" style="text;whiteSpace=wrap;html=1;" parent="WIyWlLk6GJQsqaUBKTNV-1" vertex="1">
          <mxGeometry x="230" y="460" width="50" height="30" as="geometry" />
        </mxCell>
        <mxCell id="viTQDgZY1ZenbaxmH68Z-0" value="物流模式" style="whiteSpace=wrap;strokeWidth=2;" vertex="1" parent="WIyWlLk6GJQsqaUBKTNV-1">
          <mxGeometry x="268" y="1000" width="125" height="49" as="geometry" />
        </mxCell>
        <mxCell id="viTQDgZY1ZenbaxmH68Z-1" value="货值&lt;50美元" style="rhombus;strokeWidth=2;whiteSpace=wrap;" vertex="1" parent="WIyWlLk6GJQsqaUBKTNV-1">
          <mxGeometry x="58" y="1099" width="158" height="158" as="geometry" />
        </mxCell>
        <mxCell id="viTQDgZY1ZenbaxmH68Z-2" value="50-200美元" style="rhombus;strokeWidth=2;whiteSpace=wrap;" vertex="1" parent="WIyWlLk6GJQsqaUBKTNV-1">
          <mxGeometry x="266" y="1113" width="129" height="129" as="geometry" />
        </mxCell>
        <mxCell id="viTQDgZY1ZenbaxmH68Z-3" value="&gt;200美元" style="rhombus;strokeWidth=2;whiteSpace=wrap;" vertex="1" parent="WIyWlLk6GJQsqaUBKTNV-1">
          <mxGeometry x="505" y="1163" width="30" height="30" as="geometry" />
        </mxCell>
        <mxCell id="viTQDgZY1ZenbaxmH68Z-4" value="跨境直邮" style="whiteSpace=wrap;strokeWidth=2;" vertex="1" parent="WIyWlLk6GJQsqaUBKTNV-1">
          <mxGeometry x="75" y="1306" width="125" height="49" as="geometry" />
        </mxCell>
        <mxCell id="viTQDgZY1ZenbaxmH68Z-5" value="海外仓前置" style="whiteSpace=wrap;strokeWidth=2;" vertex="1" parent="WIyWlLk6GJQsqaUBKTNV-1">
          <mxGeometry x="260" y="1306" width="140" height="49" as="geometry" />
        </mxCell>
        <mxCell id="viTQDgZY1ZenbaxmH68Z-6" value="本土仓直发" style="whiteSpace=wrap;strokeWidth=2;" vertex="1" parent="WIyWlLk6GJQsqaUBKTNV-1">
          <mxGeometry x="450" y="1306" width="140" height="49" as="geometry" />
        </mxCell>
        <mxCell id="viTQDgZY1ZenbaxmH68Z-7" value="" style="curved=1;startArrow=none;endArrow=block;exitX=0;exitY=0.82;entryX=0.5;entryY=0;rounded=0;" edge="1" parent="WIyWlLk6GJQsqaUBKTNV-1" source="viTQDgZY1ZenbaxmH68Z-0" target="viTQDgZY1ZenbaxmH68Z-1">
          <mxGeometry relative="1" as="geometry">
            <Array as="points">
              <mxPoint x="137" y="1074" />
            </Array>
          </mxGeometry>
        </mxCell>
        <mxCell id="viTQDgZY1ZenbaxmH68Z-8" value="" style="curved=1;startArrow=none;endArrow=block;exitX=0.5;exitY=0.99;entryX=0.5;entryY=0;rounded=0;" edge="1" parent="WIyWlLk6GJQsqaUBKTNV-1" source="viTQDgZY1ZenbaxmH68Z-0" target="viTQDgZY1ZenbaxmH68Z-2">
          <mxGeometry relative="1" as="geometry">
            <Array as="points" />
          </mxGeometry>
        </mxCell>
        <mxCell id="viTQDgZY1ZenbaxmH68Z-9" value="" style="curved=1;startArrow=none;endArrow=block;exitX=0.99;exitY=0.83;entryX=0.5;entryY=-0.02;rounded=0;" edge="1" parent="WIyWlLk6GJQsqaUBKTNV-1" source="viTQDgZY1ZenbaxmH68Z-0" target="viTQDgZY1ZenbaxmH68Z-3">
          <mxGeometry relative="1" as="geometry">
            <Array as="points">
              <mxPoint x="520" y="1074" />
            </Array>
          </mxGeometry>
        </mxCell>
        <mxCell id="viTQDgZY1ZenbaxmH68Z-10" value="" style="curved=1;startArrow=none;endArrow=block;exitX=0.5;exitY=1;entryX=0.49;entryY=0.01;rounded=0;" edge="1" parent="WIyWlLk6GJQsqaUBKTNV-1" source="viTQDgZY1ZenbaxmH68Z-1" target="viTQDgZY1ZenbaxmH68Z-4">
          <mxGeometry relative="1" as="geometry">
            <Array as="points" />
          </mxGeometry>
        </mxCell>
        <mxCell id="viTQDgZY1ZenbaxmH68Z-11" value="" style="curved=1;startArrow=none;endArrow=block;exitX=0.5;exitY=1;entryX=0.5;entryY=0.01;rounded=0;" edge="1" parent="WIyWlLk6GJQsqaUBKTNV-1" source="viTQDgZY1ZenbaxmH68Z-2" target="viTQDgZY1ZenbaxmH68Z-5">
          <mxGeometry relative="1" as="geometry">
            <Array as="points" />
          </mxGeometry>
        </mxCell>
        <mxCell id="viTQDgZY1ZenbaxmH68Z-12" value="" style="curved=1;startArrow=none;endArrow=block;exitX=0.5;exitY=0.98;entryX=0.5;entryY=0.01;rounded=0;" edge="1" parent="WIyWlLk6GJQsqaUBKTNV-1" source="viTQDgZY1ZenbaxmH68Z-3" target="viTQDgZY1ZenbaxmH68Z-6">
          <mxGeometry relative="1" as="geometry">
            <Array as="points" />
          </mxGeometry>
        </mxCell>
        <UserObject label="" plantUmlData="{&#xa;  &quot;data&quot;: &quot;@startuml\nskinparam shadowing false\nAlice -&gt; Bob: Authentication Request\nBob --&gt; Alice: Authentication Response\n\nAlice -&gt; Bob: Another authentication Request\nAlice &lt;-- Bob: Another authentication Response\n@enduml&quot;,&#xa;  &quot;format&quot;: &quot;svg&quot;&#xa;}" id="viTQDgZY1ZenbaxmH68Z-13">
          <mxCell style="shape=image;noLabel=1;verticalAlign=top;aspect=fixed;imageAspect=0;image=data:image/svg+xml,PD94bWwgdmVyc2lvbj0iMS4wIiBlbmNvZGluZz0iVVRGLTgiIHN0YW5kYWxvbmU9Im5vIj8+PHN2ZyB4bWxucz0iaHR0cDovL3d3dy53My5vcmcvMjAwMC9zdmciIHhtbG5zOnhsaW5rPSJodHRwOi8vd3d3LnczLm9yZy8xOTk5L3hsaW5rIiBjb250ZW50U2NyaXB0VHlwZT0iYXBwbGljYXRpb24vZWNtYXNjcmlwdCIgY29udGVudFN0eWxlVHlwZT0idGV4dC9jc3MiIGhlaWdodD0iMjEycHgiIHByZXNlcnZlQXNwZWN0UmF0aW89Im5vbmUiIHN0eWxlPSJ3aWR0aDoyOTVweDtoZWlnaHQ6MjEycHg7IiB2ZXJzaW9uPSIxLjEiIHZpZXdCb3g9IjAgMCAyOTUgMjEyIiB3aWR0aD0iMjk1cHgiIHpvb21BbmRQYW49Im1hZ25pZnkiPjxkZWZzLz48Zz48bGluZSBzdHlsZT0ic3Ryb2tlOiAjQTgwMDM2OyBzdHJva2Utd2lkdGg6IDEuMDsgc3Ryb2tlLWRhc2hhcnJheTogNS4wLDUuMDsiIHgxPSIzMSIgeDI9IjMxIiB5MT0iMzQuNDg4MyIgeTI9IjE3MS43MzA1Ii8+PGxpbmUgc3R5bGU9InN0cm9rZTogI0E4MDAzNjsgc3Ryb2tlLXdpZHRoOiAxLjA7IHN0cm9rZS1kYXNoYXJyYXk6IDUuMCw1LjA7IiB4MT0iMjY0LjUiIHgyPSIyNjQuNSIgeTE9IjM0LjQ4ODMiIHkyPSIxNzEuNzMwNSIvPjxyZWN0IGZpbGw9IiNGRUZFQ0UiIGhlaWdodD0iMzAuNDg4MyIgc3R5bGU9InN0cm9rZTogI0E4MDAzNjsgc3Ryb2tlLXdpZHRoOiAxLjU7IiB3aWR0aD0iNDciIHg9IjgiIHk9IjMiLz48dGV4dCBmaWxsPSIjMDAwMDAwIiBmb250LWZhbWlseT0ic2Fucy1zZXJpZiIgZm9udC1zaXplPSIxNCIgbGVuZ3RoQWRqdXN0PSJzcGFjaW5nQW5kR2x5cGhzIiB0ZXh0TGVuZ3RoPSIzMyIgeD0iMTUiIHk9IjIzLjUzNTIiPkFsaWNlPC90ZXh0PjxyZWN0IGZpbGw9IiNGRUZFQ0UiIGhlaWdodD0iMzAuNDg4MyIgc3R5bGU9InN0cm9rZTogI0E4MDAzNjsgc3Ryb2tlLXdpZHRoOiAxLjU7IiB3aWR0aD0iNDciIHg9IjgiIHk9IjE3MC43MzA1Ii8+PHRleHQgZmlsbD0iIzAwMDAwMCIgZm9udC1mYW1pbHk9InNhbnMtc2VyaWYiIGZvbnQtc2l6ZT0iMTQiIGxlbmd0aEFkanVzdD0ic3BhY2luZ0FuZEdseXBocyIgdGV4dExlbmd0aD0iMzMiIHg9IjE1IiB5PSIxOTEuMjY1NiI+QWxpY2U8L3RleHQ+PHJlY3QgZmlsbD0iI0ZFRkVDRSIgaGVpZ2h0PSIzMC40ODgzIiBzdHlsZT0ic3Ryb2tlOiAjQTgwMDM2OyBzdHJva2Utd2lkdGg6IDEuNTsiIHdpZHRoPSI0MCIgeD0iMjQ0LjUiIHk9IjMiLz48dGV4dCBmaWxsPSIjMDAwMDAwIiBmb250LWZhbWlseT0ic2Fucy1zZXJpZiIgZm9udC1zaXplPSIxNCIgbGVuZ3RoQWRqdXN0PSJzcGFjaW5nQW5kR2x5cGhzIiB0ZXh0TGVuZ3RoPSIyNiIgeD0iMjUxLjUiIHk9IjIzLjUzNTIiPkJvYjwvdGV4dD48cmVjdCBmaWxsPSIjRkVGRUNFIiBoZWlnaHQ9IjMwLjQ4ODMiIHN0eWxlPSJzdHJva2U6ICNBODAwMzY7IHN0cm9rZS13aWR0aDogMS41OyIgd2lkdGg9IjQwIiB4PSIyNDQuNSIgeT0iMTcwLjczMDUiLz48dGV4dCBmaWxsPSIjMDAwMDAwIiBmb250LWZhbWlseT0ic2Fucy1zZXJpZiIgZm9udC1zaXplPSIxNCIgbGVuZ3RoQWRqdXN0PSJzcGFjaW5nQW5kR2x5cGhzIiB0ZXh0TGVuZ3RoPSIyNiIgeD0iMjUxLjUiIHk9IjE5MS4yNjU2Ij5Cb2I8L3RleHQ+PHBvbHlnb24gZmlsbD0iI0E4MDAzNiIgcG9pbnRzPSIyNTIuNSw2MS43OTg4LDI2Mi41LDY1Ljc5ODgsMjUyLjUsNjkuNzk4OCwyNTYuNSw2NS43OTg4IiBzdHlsZT0ic3Ryb2tlOiAjQTgwMDM2OyBzdHJva2Utd2lkdGg6IDEuMDsiLz48bGluZSBzdHlsZT0ic3Ryb2tlOiAjQTgwMDM2OyBzdHJva2Utd2lkdGg6IDEuMDsiIHgxPSIzMS41IiB4Mj0iMjU4LjUiIHkxPSI2NS43OTg4IiB5Mj0iNjUuNzk4OCIvPjx0ZXh0IGZpbGw9IiMwMDAwMDAiIGZvbnQtZmFtaWx5PSJzYW5zLXNlcmlmIiBmb250LXNpemU9IjEzIiBsZW5ndGhBZGp1c3Q9InNwYWNpbmdBbmRHbHlwaHMiIHRleHRMZW5ndGg9IjE0NyIgeD0iMzguNSIgeT0iNjEuMDU2NiI+QXV0aGVudGljYXRpb24gUmVxdWVzdDwvdGV4dD48cG9seWdvbiBmaWxsPSIjQTgwMDM2IiBwb2ludHM9IjQyLjUsOTEuMTA5NCwzMi41LDk1LjEwOTQsNDIuNSw5OS4xMDk0LDM4LjUsOTUuMTA5NCIgc3R5bGU9InN0cm9rZTogI0E4MDAzNjsgc3Ryb2tlLXdpZHRoOiAxLjA7Ii8+PGxpbmUgc3R5bGU9InN0cm9rZTogI0E4MDAzNjsgc3Ryb2tlLXdpZHRoOiAxLjA7IHN0cm9rZS1kYXNoYXJyYXk6IDIuMCwyLjA7IiB4MT0iMzYuNSIgeDI9IjI2My41IiB5MT0iOTUuMTA5NCIgeTI9Ijk1LjEwOTQiLz48dGV4dCBmaWxsPSIjMDAwMDAwIiBmb250LWZhbWlseT0ic2Fucy1zZXJpZiIgZm9udC1zaXplPSIxMyIgbGVuZ3RoQWRqdXN0PSJzcGFjaW5nQW5kR2x5cGhzIiB0ZXh0TGVuZ3RoPSIxNTciIHg9IjQ4LjUiIHk9IjkwLjM2NzIiPkF1dGhlbnRpY2F0aW9uIFJlc3BvbnNlPC90ZXh0Pjxwb2x5Z29uIGZpbGw9IiNBODAwMzYiIHBvaW50cz0iMjUyLjUsMTIwLjQxOTksMjYyLjUsMTI0LjQxOTksMjUyLjUsMTI4LjQxOTksMjU2LjUsMTI0LjQxOTkiIHN0eWxlPSJzdHJva2U6ICNBODAwMzY7IHN0cm9rZS13aWR0aDogMS4wOyIvPjxsaW5lIHN0eWxlPSJzdHJva2U6ICNBODAwMzY7IHN0cm9rZS13aWR0aDogMS4wOyIgeDE9IjMxLjUiIHgyPSIyNTguNSIgeTE9IjEyNC40MTk5IiB5Mj0iMTI0LjQxOTkiLz48dGV4dCBmaWxsPSIjMDAwMDAwIiBmb250LWZhbWlseT0ic2Fucy1zZXJpZiIgZm9udC1zaXplPSIxMyIgbGVuZ3RoQWRqdXN0PSJzcGFjaW5nQW5kR2x5cGhzIiB0ZXh0TGVuZ3RoPSIxOTkiIHg9IjM4LjUiIHk9IjExOS42Nzc3Ij5Bbm90aGVyIGF1dGhlbnRpY2F0aW9uIFJlcXVlc3Q8L3RleHQ+PHBvbHlnb24gZmlsbD0iI0E4MDAzNiIgcG9pbnRzPSI0Mi41LDE0OS43MzA1LDMyLjUsMTUzLjczMDUsNDIuNSwxNTcuNzMwNSwzOC41LDE1My43MzA1IiBzdHlsZT0ic3Ryb2tlOiAjQTgwMDM2OyBzdHJva2Utd2lkdGg6IDEuMDsiLz48bGluZSBzdHlsZT0ic3Ryb2tlOiAjQTgwMDM2OyBzdHJva2Utd2lkdGg6IDEuMDsgc3Ryb2tlLWRhc2hhcnJheTogMi4wLDIuMDsiIHgxPSIzNi41IiB4Mj0iMjYzLjUiIHkxPSIxNTMuNzMwNSIgeTI9IjE1My43MzA1Ii8+PHRleHQgZmlsbD0iIzAwMDAwMCIgZm9udC1mYW1pbHk9InNhbnMtc2VyaWYiIGZvbnQtc2l6ZT0iMTMiIGxlbmd0aEFkanVzdD0ic3BhY2luZ0FuZEdseXBocyIgdGV4dExlbmd0aD0iMjA5IiB4PSI0OC41IiB5PSIxNDguOTg4MyI+QW5vdGhlciBhdXRoZW50aWNhdGlvbiBSZXNwb25zZTwvdGV4dD48IS0tTUQ1PVs3ZjNlNGQwYzkwMWVmZGJjNTdlYjQ0MjQ5YTNiODE5N10KQHN0YXJ0dW1sDQpza2lucGFyYW0gc2hhZG93aW5nIGZhbHNlDQpBbGljZSAtPiBCb2I6IEF1dGhlbnRpY2F0aW9uIFJlcXVlc3QNCkJvYiAtIC0+IEFsaWNlOiBBdXRoZW50aWNhdGlvbiBSZXNwb25zZQ0KDQpBbGljZSAtPiBCb2I6IEFub3RoZXIgYXV0aGVudGljYXRpb24gUmVxdWVzdA0KQWxpY2UgPC0gLSBCb2I6IEFub3RoZXIgYXV0aGVudGljYXRpb24gUmVzcG9uc2UNCkBlbmR1bWwNCgpQbGFudFVNTCB2ZXJzaW9uIDEuMjAyMC4wMihTdW4gTWFyIDAxIDA0OjIyOjA3IENTVCAyMDIwKQooTUlUIHNvdXJjZSBkaXN0cmlidXRpb24pCkphdmEgUnVudGltZTogT3BlbkpESyBSdW50aW1lIEVudmlyb25tZW50CkpWTTogT3BlbkpESyA2NC1CaXQgU2VydmVyIFZNCkphdmEgVmVyc2lvbjogMTIrMzMKT3BlcmF0aW5nIFN5c3RlbTogTWFjIE9TIFgKRGVmYXVsdCBFbmNvZGluZzogVVRGLTgKTGFuZ3VhZ2U6IGVuCkNvdW50cnk6IFVTCi0tPjwvZz48L3N2Zz4=;" vertex="1" parent="WIyWlLk6GJQsqaUBKTNV-1">
            <mxGeometry x="430" y="800" width="295" height="212" as="geometry" />
          </mxCell>
        </UserObject>
      </root>
    </mxGraphModel>
  </diagram>
  <diagram id="gbre7PoFvN95HI0ecckB" name="Page-2">
    <mxGraphModel dx="1489" dy="828" grid="1" gridSize="10" guides="1" tooltips="1" connect="1" arrows="1" fold="1" page="1" pageScale="1" pageWidth="827" pageHeight="1169" math="0" shadow="0">
      <root>
        <mxCell id="Lb562_HOeZJibadWWv1J-0" />
        <mxCell id="Lb562_HOeZJibadWWv1J-1" parent="Lb562_HOeZJibadWWv1J-0" />
      </root>
    </mxGraphModel>
  </diagram>
  <diagram id="KMTDw45ETmdznobcVzb6" name="Page-3">
    <mxGraphModel dx="2044" dy="1058" grid="1" gridSize="10" guides="1" tooltips="1" connect="1" arrows="1" fold="1" page="1" pageScale="1" pageWidth="827" pageHeight="1169" math="0" shadow="0">
      <root>
        <mxCell id="WMl-yz5_S_ytCYJ7rsez-0" />
        <mxCell id="WMl-yz5_S_ytCYJ7rsez-1" parent="WMl-yz5_S_ytCYJ7rsez-0" />
        <mxCell id="WMl-yz5_S_ytCYJ7rsez-2" value="" style="rounded=0;whiteSpace=wrap;html=1;" vertex="1" parent="WMl-yz5_S_ytCYJ7rsez-1">
          <mxGeometry x="140" y="140" width="360" height="140" as="geometry" />
        </mxCell>
        <mxCell id="WMl-yz5_S_ytCYJ7rsez-3" value="mutation Web平台" style="text;html=1;strokeColor=none;fillColor=none;align=center;verticalAlign=middle;whiteSpace=wrap;rounded=0;" vertex="1" parent="WMl-yz5_S_ytCYJ7rsez-1">
          <mxGeometry x="140" y="140" width="110" height="20" as="geometry" />
        </mxCell>
        <mxCell id="WMl-yz5_S_ytCYJ7rsez-4" value="新建项目" style="text;html=1;strokeColor=none;fillColor=none;align=center;verticalAlign=middle;whiteSpace=wrap;rounded=0;" vertex="1" parent="WMl-yz5_S_ytCYJ7rsez-1">
          <mxGeometry x="200" y="180" width="70" height="20" as="geometry" />
        </mxCell>
        <mxCell id="WMl-yz5_S_ytCYJ7rsez-6" value="权限管理" style="text;html=1;strokeColor=none;fillColor=none;align=center;verticalAlign=middle;whiteSpace=wrap;rounded=0;" vertex="1" parent="WMl-yz5_S_ytCYJ7rsez-1">
          <mxGeometry x="200" y="220" width="70" height="20" as="geometry" />
        </mxCell>
        <mxCell id="WMl-yz5_S_ytCYJ7rsez-7" value="项目管理" style="text;html=1;strokeColor=none;fillColor=none;align=center;verticalAlign=middle;whiteSpace=wrap;rounded=0;" vertex="1" parent="WMl-yz5_S_ytCYJ7rsez-1">
          <mxGeometry x="350" y="180" width="70" height="20" as="geometry" />
        </mxCell>
        <mxCell id="WMl-yz5_S_ytCYJ7rsez-8" value="远程配置yml" style="text;html=1;strokeColor=none;fillColor=none;align=center;verticalAlign=middle;whiteSpace=wrap;rounded=0;" vertex="1" parent="WMl-yz5_S_ytCYJ7rsez-1">
          <mxGeometry x="350" y="220" width="70" height="20" as="geometry" />
        </mxCell>
      </root>
    </mxGraphModel>
  </diagram>
  <diagram id="KA_ma-e29sn2K2IGu5ps" name="Page-4">
    <mxGraphModel dx="2044" dy="1058" grid="1" gridSize="10" guides="1" tooltips="1" connect="1" arrows="1" fold="1" page="1" pageScale="1" pageWidth="827" pageHeight="1169" math="0" shadow="0">
      <root>
        <mxCell id="Rw3_wm-dS9J8nInSv-eR-0" />
        <mxCell id="Rw3_wm-dS9J8nInSv-eR-1" parent="Rw3_wm-dS9J8nInSv-eR-0" />
        <mxCell id="Rw3_wm-dS9J8nInSv-eR-18" value="" style="rounded=0;whiteSpace=wrap;html=1;fillColor=#f9f7ed;strokeColor=#36393d;" vertex="1" parent="Rw3_wm-dS9J8nInSv-eR-1">
          <mxGeometry x="94.5" y="45" width="635.5" height="470" as="geometry" />
        </mxCell>
        <mxCell id="Rw3_wm-dS9J8nInSv-eR-2" value="" style="rounded=0;whiteSpace=wrap;html=1;fillColor=#ffff88;strokeColor=#36393d;" vertex="1" parent="Rw3_wm-dS9J8nInSv-eR-1">
          <mxGeometry x="110" y="90" width="120" height="60" as="geometry" />
        </mxCell>
        <mxCell id="Rw3_wm-dS9J8nInSv-eR-3" value="蓝盾插件" style="text;html=1;strokeColor=none;fillColor=none;align=center;verticalAlign=middle;whiteSpace=wrap;rounded=0;" vertex="1" parent="Rw3_wm-dS9J8nInSv-eR-1">
          <mxGeometry x="145" y="110" width="50" height="20" as="geometry" />
        </mxCell>
        <mxCell id="Rw3_wm-dS9J8nInSv-eR-4" value="" style="rounded=0;whiteSpace=wrap;html=1;fillColor=#ffff88;strokeColor=#36393d;" vertex="1" parent="Rw3_wm-dS9J8nInSv-eR-1">
          <mxGeometry x="360" y="90" width="120" height="60" as="geometry" />
        </mxCell>
        <mxCell id="Rw3_wm-dS9J8nInSv-eR-5" value="QCI插件" style="text;html=1;strokeColor=none;fillColor=none;align=center;verticalAlign=middle;whiteSpace=wrap;rounded=0;" vertex="1" parent="Rw3_wm-dS9J8nInSv-eR-1">
          <mxGeometry x="395" y="110" width="50" height="20" as="geometry" />
        </mxCell>
        <mxCell id="Rw3_wm-dS9J8nInSv-eR-6" value="" style="rounded=0;whiteSpace=wrap;html=1;fillColor=#ffff88;strokeColor=#36393d;" vertex="1" parent="Rw3_wm-dS9J8nInSv-eR-1">
          <mxGeometry x="570" y="90" width="120" height="60" as="geometry" />
        </mxCell>
        <mxCell id="Rw3_wm-dS9J8nInSv-eR-7" value="OCI插件" style="text;html=1;strokeColor=none;fillColor=none;align=center;verticalAlign=middle;whiteSpace=wrap;rounded=0;" vertex="1" parent="Rw3_wm-dS9J8nInSv-eR-1">
          <mxGeometry x="605" y="110" width="50" height="20" as="geometry" />
        </mxCell>
        <mxCell id="Rw3_wm-dS9J8nInSv-eR-8" value="" style="rounded=0;whiteSpace=wrap;html=1;fillColor=#ffff88;strokeColor=#36393d;" vertex="1" parent="Rw3_wm-dS9J8nInSv-eR-1">
          <mxGeometry x="348" y="250" width="140" height="60" as="geometry" />
        </mxCell>
        <mxCell id="Rw3_wm-dS9J8nInSv-eR-9" value="mu-cli命令行" style="text;html=1;strokeColor=none;fillColor=none;align=center;verticalAlign=middle;whiteSpace=wrap;rounded=0;" vertex="1" parent="Rw3_wm-dS9J8nInSv-eR-1">
          <mxGeometry x="380" y="270" width="70" height="20" as="geometry" />
        </mxCell>
        <mxCell id="Rw3_wm-dS9J8nInSv-eR-12" value="" style="endArrow=classic;html=1;" edge="1" parent="Rw3_wm-dS9J8nInSv-eR-1">
          <mxGeometry width="50" height="50" relative="1" as="geometry">
            <mxPoint x="170" y="170" as="sourcePoint" />
            <mxPoint x="300" y="240" as="targetPoint" />
          </mxGeometry>
        </mxCell>
        <mxCell id="Rw3_wm-dS9J8nInSv-eR-13" value="" style="endArrow=classic;html=1;" edge="1" parent="Rw3_wm-dS9J8nInSv-eR-1">
          <mxGeometry width="50" height="50" relative="1" as="geometry">
            <mxPoint x="415" y="160" as="sourcePoint" />
            <mxPoint x="415" y="230" as="targetPoint" />
          </mxGeometry>
        </mxCell>
        <mxCell id="Rw3_wm-dS9J8nInSv-eR-14" value="" style="endArrow=classic;html=1;" edge="1" parent="Rw3_wm-dS9J8nInSv-eR-1">
          <mxGeometry width="50" height="50" relative="1" as="geometry">
            <mxPoint x="629.5" y="160" as="sourcePoint" />
            <mxPoint x="490" y="230" as="targetPoint" />
          </mxGeometry>
        </mxCell>
        <mxCell id="Rw3_wm-dS9J8nInSv-eR-15" value="" style="rounded=0;whiteSpace=wrap;html=1;fillColor=#ffff88;strokeColor=#36393d;" vertex="1" parent="Rw3_wm-dS9J8nInSv-eR-1">
          <mxGeometry x="350" y="406" width="140" height="60" as="geometry" />
        </mxCell>
        <mxCell id="Rw3_wm-dS9J8nInSv-eR-16" value="MuJS" style="text;html=1;strokeColor=none;fillColor=none;align=center;verticalAlign=middle;whiteSpace=wrap;rounded=0;" vertex="1" parent="Rw3_wm-dS9J8nInSv-eR-1">
          <mxGeometry x="382" y="426" width="70" height="20" as="geometry" />
        </mxCell>
        <mxCell id="Rw3_wm-dS9J8nInSv-eR-17" value="" style="endArrow=classic;html=1;" edge="1" parent="Rw3_wm-dS9J8nInSv-eR-1">
          <mxGeometry width="50" height="50" relative="1" as="geometry">
            <mxPoint x="413" y="320" as="sourcePoint" />
            <mxPoint x="413" y="390" as="targetPoint" />
          </mxGeometry>
        </mxCell>
        <mxCell id="Rw3_wm-dS9J8nInSv-eR-20" value="" style="rounded=0;whiteSpace=wrap;html=1;fillColor=#ffff88;strokeColor=#36393d;" vertex="1" parent="Rw3_wm-dS9J8nInSv-eR-1">
          <mxGeometry x="344.5" y="620" width="140" height="60" as="geometry" />
        </mxCell>
        <mxCell id="Rw3_wm-dS9J8nInSv-eR-21" value="MuSVR后端" style="text;html=1;strokeColor=none;fillColor=none;align=center;verticalAlign=middle;whiteSpace=wrap;rounded=0;" vertex="1" parent="Rw3_wm-dS9J8nInSv-eR-1">
          <mxGeometry x="382.5" y="640" width="70" height="20" as="geometry" />
        </mxCell>
        <mxCell id="Rw3_wm-dS9J8nInSv-eR-22" value="" style="endArrow=classic;html=1;" edge="1" parent="Rw3_wm-dS9J8nInSv-eR-1">
          <mxGeometry width="50" height="50" relative="1" as="geometry">
            <mxPoint x="413" y="530" as="sourcePoint" />
            <mxPoint x="413" y="600" as="targetPoint" />
          </mxGeometry>
        </mxCell>
        <mxCell id="Rw3_wm-dS9J8nInSv-eR-23" value="" style="rounded=0;whiteSpace=wrap;html=1;fillColor=#ffff88;strokeColor=#36393d;" vertex="1" parent="Rw3_wm-dS9J8nInSv-eR-1">
          <mxGeometry x="350" y="790" width="140" height="60" as="geometry" />
        </mxCell>
        <mxCell id="Rw3_wm-dS9J8nInSv-eR-24" value="MuWeb&lt;br&gt;前端" style="text;html=1;strokeColor=none;fillColor=none;align=center;verticalAlign=middle;whiteSpace=wrap;rounded=0;" vertex="1" parent="Rw3_wm-dS9J8nInSv-eR-1">
          <mxGeometry x="361" y="806" width="110" height="30" as="geometry" />
        </mxCell>
        <mxCell id="Rw3_wm-dS9J8nInSv-eR-26" value="" style="endArrow=classic;html=1;" edge="1" parent="Rw3_wm-dS9J8nInSv-eR-1">
          <mxGeometry width="50" height="50" relative="1" as="geometry">
            <mxPoint x="413" y="700" as="sourcePoint" />
            <mxPoint x="413" y="770" as="targetPoint" />
          </mxGeometry>
        </mxCell>
        <mxCell id="Rw3_wm-dS9J8nInSv-eR-27" value="报告、分析" style="text;html=1;strokeColor=none;fillColor=none;align=center;verticalAlign=middle;whiteSpace=wrap;rounded=0;" vertex="1" parent="Rw3_wm-dS9J8nInSv-eR-1">
          <mxGeometry x="330" y="720" width="71" height="20" as="geometry" />
        </mxCell>
        <mxCell id="Rw3_wm-dS9J8nInSv-eR-28" value="配置" style="text;html=1;strokeColor=none;fillColor=none;align=center;verticalAlign=middle;whiteSpace=wrap;rounded=0;" vertex="1" parent="Rw3_wm-dS9J8nInSv-eR-1">
          <mxGeometry x="442" y="720" width="71" height="20" as="geometry" />
        </mxCell>
        <mxCell id="Rw3_wm-dS9J8nInSv-eR-30" value="" style="endArrow=classic;html=1;" edge="1" parent="Rw3_wm-dS9J8nInSv-eR-1">
          <mxGeometry width="50" height="50" relative="1" as="geometry">
            <mxPoint x="430" y="770" as="sourcePoint" />
            <mxPoint x="430" y="700" as="targetPoint" />
          </mxGeometry>
        </mxCell>
        <mxCell id="Rw3_wm-dS9J8nInSv-eR-31" value="" style="endArrow=classic;html=1;" edge="1" parent="Rw3_wm-dS9J8nInSv-eR-1">
          <mxGeometry width="50" height="50" relative="1" as="geometry">
            <mxPoint x="430" y="600" as="sourcePoint" />
            <mxPoint x="430" y="530" as="targetPoint" />
          </mxGeometry>
        </mxCell>
        <mxCell id="Rw3_wm-dS9J8nInSv-eR-32" value="配置" style="text;html=1;strokeColor=none;fillColor=none;align=center;verticalAlign=middle;whiteSpace=wrap;rounded=0;" vertex="1" parent="Rw3_wm-dS9J8nInSv-eR-1">
          <mxGeometry x="445" y="565" width="71" height="20" as="geometry" />
        </mxCell>
        <mxCell id="Rw3_wm-dS9J8nInSv-eR-33" value="任务" style="text;html=1;strokeColor=none;fillColor=none;align=center;verticalAlign=middle;whiteSpace=wrap;rounded=0;" vertex="1" parent="Rw3_wm-dS9J8nInSv-eR-1">
          <mxGeometry x="330" y="560" width="71" height="20" as="geometry" />
        </mxCell>
        <mxCell id="Rw3_wm-dS9J8nInSv-eR-34" value="" style="endArrow=classic;html=1;" edge="1" parent="Rw3_wm-dS9J8nInSv-eR-1">
          <mxGeometry width="50" height="50" relative="1" as="geometry">
            <mxPoint x="430" y="390" as="sourcePoint" />
            <mxPoint x="430" y="320" as="targetPoint" />
          </mxGeometry>
        </mxCell>
        <mxCell id="Rw3_wm-dS9J8nInSv-eR-35" value="变异" style="text;html=1;strokeColor=none;fillColor=none;align=center;verticalAlign=middle;whiteSpace=wrap;rounded=0;" vertex="1" parent="Rw3_wm-dS9J8nInSv-eR-1">
          <mxGeometry x="343" y="350" width="71" height="20" as="geometry" />
        </mxCell>
        <mxCell id="Rw3_wm-dS9J8nInSv-eR-36" value="回调" style="text;html=1;strokeColor=none;fillColor=none;align=center;verticalAlign=middle;whiteSpace=wrap;rounded=0;" vertex="1" parent="Rw3_wm-dS9J8nInSv-eR-1">
          <mxGeometry x="430" y="350" width="71" height="20" as="geometry" />
        </mxCell>
        <mxCell id="Rw3_wm-dS9J8nInSv-eR-38" value="MR、PUSH" style="text;html=1;strokeColor=none;fillColor=none;align=center;verticalAlign=middle;whiteSpace=wrap;rounded=0;" vertex="1" parent="Rw3_wm-dS9J8nInSv-eR-1">
          <mxGeometry x="240" y="180" width="70" height="20" as="geometry" />
        </mxCell>
        <mxCell id="Rw3_wm-dS9J8nInSv-eR-41" value="MR、PUSH" style="text;html=1;strokeColor=none;fillColor=none;align=center;verticalAlign=middle;whiteSpace=wrap;rounded=0;" vertex="1" parent="Rw3_wm-dS9J8nInSv-eR-1">
          <mxGeometry x="420" y="180" width="70" height="20" as="geometry" />
        </mxCell>
        <mxCell id="Rw3_wm-dS9J8nInSv-eR-42" value="MR、PUSH" style="text;html=1;strokeColor=none;fillColor=none;align=center;verticalAlign=middle;whiteSpace=wrap;rounded=0;" vertex="1" parent="Rw3_wm-dS9J8nInSv-eR-1">
          <mxGeometry x="590" y="190" width="70" height="20" as="geometry" />
        </mxCell>
      </root>
    </mxGraphModel>
  </diagram>
  <diagram id="LS-YfcawhJyXlsDKpS0f" name="Page-5">
    <mxGraphModel dx="2044" dy="1058" grid="1" gridSize="10" guides="1" tooltips="1" connect="1" arrows="1" fold="1" page="1" pageScale="1" pageWidth="827" pageHeight="1169" math="0" shadow="0">
      <root>
        <mxCell id="fVWyyu-34u5eeUPj3ZyX-0" />
        <mxCell id="fVWyyu-34u5eeUPj3ZyX-1" parent="fVWyyu-34u5eeUPj3ZyX-0" />
        <mxCell id="fVWyyu-34u5eeUPj3ZyX-2" value="" style="rounded=0;whiteSpace=wrap;html=1;fillColor=#fff2cc;strokeColor=#d6b656;" vertex="1" parent="fVWyyu-34u5eeUPj3ZyX-1">
          <mxGeometry x="200" y="50" width="420" height="120" as="geometry" />
        </mxCell>
        <mxCell id="fVWyyu-34u5eeUPj3ZyX-3" value="Prepare" style="text;html=1;strokeColor=none;fillColor=none;align=center;verticalAlign=middle;whiteSpace=wrap;rounded=0;" vertex="1" parent="fVWyyu-34u5eeUPj3ZyX-1">
          <mxGeometry x="210" y="50" width="40" height="20" as="geometry" />
        </mxCell>
        <mxCell id="fVWyyu-34u5eeUPj3ZyX-4" value="" style="rounded=0;whiteSpace=wrap;html=1;fillColor=#ffff88;strokeColor=#36393d;" vertex="1" parent="fVWyyu-34u5eeUPj3ZyX-1">
          <mxGeometry x="219" y="83" width="100" height="60" as="geometry" />
        </mxCell>
        <mxCell id="fVWyyu-34u5eeUPj3ZyX-5" value="加载配置" style="text;html=1;strokeColor=none;fillColor=none;align=center;verticalAlign=middle;whiteSpace=wrap;rounded=0;" vertex="1" parent="fVWyyu-34u5eeUPj3ZyX-1">
          <mxGeometry x="239" y="103" width="70" height="20" as="geometry" />
        </mxCell>
        <mxCell id="fVWyyu-34u5eeUPj3ZyX-6" value="" style="rounded=0;whiteSpace=wrap;html=1;fillColor=#ffff88;strokeColor=#36393d;" vertex="1" parent="fVWyyu-34u5eeUPj3ZyX-1">
          <mxGeometry x="369" y="83" width="100" height="60" as="geometry" />
        </mxCell>
        <mxCell id="fVWyyu-34u5eeUPj3ZyX-7" value="文件信息" style="text;html=1;strokeColor=none;fillColor=none;align=center;verticalAlign=middle;whiteSpace=wrap;rounded=0;" vertex="1" parent="fVWyyu-34u5eeUPj3ZyX-1">
          <mxGeometry x="389" y="103" width="70" height="20" as="geometry" />
        </mxCell>
        <mxCell id="fVWyyu-34u5eeUPj3ZyX-8" value="" style="rounded=0;whiteSpace=wrap;html=1;fillColor=#ffff88;strokeColor=#36393d;" vertex="1" parent="fVWyyu-34u5eeUPj3ZyX-1">
          <mxGeometry x="509" y="83" width="100" height="60" as="geometry" />
        </mxCell>
        <mxCell id="fVWyyu-34u5eeUPj3ZyX-9" value="开启日志" style="text;html=1;strokeColor=none;fillColor=none;align=center;verticalAlign=middle;whiteSpace=wrap;rounded=0;" vertex="1" parent="fVWyyu-34u5eeUPj3ZyX-1">
          <mxGeometry x="529" y="103" width="70" height="20" as="geometry" />
        </mxCell>
        <mxCell id="fVWyyu-34u5eeUPj3ZyX-11" value="" style="rounded=0;whiteSpace=wrap;html=1;fillColor=#fff2cc;strokeColor=#d6b656;" vertex="1" parent="fVWyyu-34u5eeUPj3ZyX-1">
          <mxGeometry x="200" y="300" width="420" height="120" as="geometry" />
        </mxCell>
        <mxCell id="fVWyyu-34u5eeUPj3ZyX-12" value="sandbox" style="text;html=1;strokeColor=none;fillColor=none;align=center;verticalAlign=middle;whiteSpace=wrap;rounded=0;" vertex="1" parent="fVWyyu-34u5eeUPj3ZyX-1">
          <mxGeometry x="210" y="300" width="40" height="20" as="geometry" />
        </mxCell>
        <mxCell id="fVWyyu-34u5eeUPj3ZyX-13" value="" style="rounded=0;whiteSpace=wrap;html=1;fillColor=#ffff88;strokeColor=#36393d;" vertex="1" parent="fVWyyu-34u5eeUPj3ZyX-1">
          <mxGeometry x="219" y="333" width="171" height="60" as="geometry" />
        </mxCell>
        <mxCell id="fVWyyu-34u5eeUPj3ZyX-14" value="变异文件信息准备" style="text;html=1;strokeColor=none;fillColor=none;align=center;verticalAlign=middle;whiteSpace=wrap;rounded=0;" vertex="1" parent="fVWyyu-34u5eeUPj3ZyX-1">
          <mxGeometry x="250" y="353" width="121" height="20" as="geometry" />
        </mxCell>
        <mxCell id="fVWyyu-34u5eeUPj3ZyX-15" value="" style="rounded=0;whiteSpace=wrap;html=1;fillColor=#ffff88;strokeColor=#36393d;" vertex="1" parent="fVWyyu-34u5eeUPj3ZyX-1">
          <mxGeometry x="420" y="333" width="184" height="60" as="geometry" />
        </mxCell>
        <mxCell id="fVWyyu-34u5eeUPj3ZyX-16" value="拷贝项目代码" style="text;html=1;strokeColor=none;fillColor=none;align=center;verticalAlign=middle;whiteSpace=wrap;rounded=0;" vertex="1" parent="fVWyyu-34u5eeUPj3ZyX-1">
          <mxGeometry x="462" y="353" width="101" height="20" as="geometry" />
        </mxCell>
        <mxCell id="fVWyyu-34u5eeUPj3ZyX-19" value="" style="rounded=0;whiteSpace=wrap;html=1;fillColor=#fff2cc;strokeColor=#d6b656;" vertex="1" parent="fVWyyu-34u5eeUPj3ZyX-1">
          <mxGeometry x="200" y="560" width="420" height="120" as="geometry" />
        </mxCell>
        <mxCell id="fVWyyu-34u5eeUPj3ZyX-20" value="Jest" style="text;html=1;strokeColor=none;fillColor=none;align=center;verticalAlign=middle;whiteSpace=wrap;rounded=0;" vertex="1" parent="fVWyyu-34u5eeUPj3ZyX-1">
          <mxGeometry x="210" y="560" width="40" height="20" as="geometry" />
        </mxCell>
        <mxCell id="fVWyyu-34u5eeUPj3ZyX-21" value="" style="rounded=0;whiteSpace=wrap;html=1;fillColor=#ffff88;strokeColor=#36393d;" vertex="1" parent="fVWyyu-34u5eeUPj3ZyX-1">
          <mxGeometry x="219" y="593" width="171" height="60" as="geometry" />
        </mxCell>
        <mxCell id="fVWyyu-34u5eeUPj3ZyX-22" value="初始化Jest配置" style="text;html=1;strokeColor=none;fillColor=none;align=center;verticalAlign=middle;whiteSpace=wrap;rounded=0;" vertex="1" parent="fVWyyu-34u5eeUPj3ZyX-1">
          <mxGeometry x="258" y="613" width="89" height="20" as="geometry" />
        </mxCell>
        <mxCell id="fVWyyu-34u5eeUPj3ZyX-23" value="" style="rounded=0;whiteSpace=wrap;html=1;fillColor=#ffff88;strokeColor=#36393d;" vertex="1" parent="fVWyyu-34u5eeUPj3ZyX-1">
          <mxGeometry x="420" y="593" width="178" height="60" as="geometry" />
        </mxCell>
        <mxCell id="fVWyyu-34u5eeUPj3ZyX-24" value="生成单测报告" style="text;html=1;strokeColor=none;fillColor=none;align=center;verticalAlign=middle;whiteSpace=wrap;rounded=0;" vertex="1" parent="fVWyyu-34u5eeUPj3ZyX-1">
          <mxGeometry x="466" y="613" width="79" height="20" as="geometry" />
        </mxCell>
        <mxCell id="fVWyyu-34u5eeUPj3ZyX-27" value="" style="rounded=0;whiteSpace=wrap;html=1;fillColor=#fff2cc;strokeColor=#d6b656;" vertex="1" parent="fVWyyu-34u5eeUPj3ZyX-1">
          <mxGeometry x="200" y="810" width="420" height="120" as="geometry" />
        </mxCell>
        <mxCell id="fVWyyu-34u5eeUPj3ZyX-28" value="Mutation testing" style="text;html=1;strokeColor=none;fillColor=none;align=center;verticalAlign=middle;whiteSpace=wrap;rounded=0;" vertex="1" parent="fVWyyu-34u5eeUPj3ZyX-1">
          <mxGeometry x="210" y="810" width="100" height="20" as="geometry" />
        </mxCell>
        <mxCell id="fVWyyu-34u5eeUPj3ZyX-29" value="" style="rounded=0;whiteSpace=wrap;html=1;fillColor=#ffff88;strokeColor=#36393d;" vertex="1" parent="fVWyyu-34u5eeUPj3ZyX-1">
          <mxGeometry x="219" y="843" width="100" height="60" as="geometry" />
        </mxCell>
        <mxCell id="fVWyyu-34u5eeUPj3ZyX-30" value="加载配置" style="text;html=1;strokeColor=none;fillColor=none;align=center;verticalAlign=middle;whiteSpace=wrap;rounded=0;" vertex="1" parent="fVWyyu-34u5eeUPj3ZyX-1">
          <mxGeometry x="239" y="863" width="70" height="20" as="geometry" />
        </mxCell>
        <mxCell id="fVWyyu-34u5eeUPj3ZyX-31" value="" style="rounded=0;whiteSpace=wrap;html=1;fillColor=#ffff88;strokeColor=#36393d;" vertex="1" parent="fVWyyu-34u5eeUPj3ZyX-1">
          <mxGeometry x="369" y="843" width="100" height="60" as="geometry" />
        </mxCell>
        <mxCell id="fVWyyu-34u5eeUPj3ZyX-32" value="文件信息" style="text;html=1;strokeColor=none;fillColor=none;align=center;verticalAlign=middle;whiteSpace=wrap;rounded=0;" vertex="1" parent="fVWyyu-34u5eeUPj3ZyX-1">
          <mxGeometry x="389" y="863" width="70" height="20" as="geometry" />
        </mxCell>
        <mxCell id="fVWyyu-34u5eeUPj3ZyX-33" value="" style="rounded=0;whiteSpace=wrap;html=1;fillColor=#ffff88;strokeColor=#36393d;" vertex="1" parent="fVWyyu-34u5eeUPj3ZyX-1">
          <mxGeometry x="509" y="843" width="100" height="60" as="geometry" />
        </mxCell>
        <mxCell id="fVWyyu-34u5eeUPj3ZyX-34" value="开启日志" style="text;html=1;strokeColor=none;fillColor=none;align=center;verticalAlign=middle;whiteSpace=wrap;rounded=0;" vertex="1" parent="fVWyyu-34u5eeUPj3ZyX-1">
          <mxGeometry x="529" y="863" width="70" height="20" as="geometry" />
        </mxCell>
        <mxCell id="fVWyyu-34u5eeUPj3ZyX-36" value="" style="endArrow=classic;html=1;" edge="1" parent="fVWyyu-34u5eeUPj3ZyX-1">
          <mxGeometry width="50" height="50" relative="1" as="geometry">
            <mxPoint x="400" y="190" as="sourcePoint" />
            <mxPoint x="400" y="280" as="targetPoint" />
          </mxGeometry>
        </mxCell>
        <mxCell id="fVWyyu-34u5eeUPj3ZyX-37" value="" style="endArrow=classic;html=1;" edge="1" parent="fVWyyu-34u5eeUPj3ZyX-1">
          <mxGeometry width="50" height="50" relative="1" as="geometry">
            <mxPoint x="400" y="450" as="sourcePoint" />
            <mxPoint x="400" y="540" as="targetPoint" />
          </mxGeometry>
        </mxCell>
        <mxCell id="fVWyyu-34u5eeUPj3ZyX-38" value="" style="endArrow=classic;html=1;" edge="1" parent="fVWyyu-34u5eeUPj3ZyX-1">
          <mxGeometry width="50" height="50" relative="1" as="geometry">
            <mxPoint x="400" y="710" as="sourcePoint" />
            <mxPoint x="400" y="800" as="targetPoint" />
          </mxGeometry>
        </mxCell>
      </root>
    </mxGraphModel>
  </diagram>
</mxfile>
